<svg version="1.2" xmlns="http://www.w3.org/2000/svg" viewBox="0 0 680 612" width="680" height="612">
	<style>
		.s0 { fill: #000000 } 
	</style>
	<path id="D." class="s0" aria-label="D."  d="m234.3 554h-182.9v-7.4l15.6-6q23.8-9.6 23.8-37.9v-388.1q0-29.8-23.8-37.9l-15.6-6v-7.4h196.2q78.9 0 135.4 29.7 57.2 29 87.7 84 31.2 54.3 31.2 130.9 0 78.1-33.4 133.1-33.5 55-93.7 84-59.5 29-140.5 29zm-32-475.9v461h32q53.5 0 86.2-20.8 32.7-21.6 47.6-71.4 15.6-50.5 15.6-138.3 0-87.7-15.6-137.5-14.9-50.6-46.8-71.4-32-21.6-84.1-21.6zm366.3 487.1q-26.8 0-45.4-18.6-18.6-18.6-18.6-44.6 0-26.1 18.6-45.4 18.6-19.3 45.4-19.3 26.7 0 45.3 19.3 18.6 19.3 18.6 45.4 0 26-18.6 44.6-18.6 18.6-45.3 18.6z"/>
</svg>